<svg version="1.1" id="Layer_1" xmlns="http://www.w3.org/2000/svg" xmlns:xlink="http://www.w3.org/1999/xlink" x="0px" y="0px"
	 width="100%" viewBox="0 0 1024 1024" enable-background="new 0 0 1024 1024" xml:space="preserve">
<path fill="#000000" opacity="1.000000" stroke="none" 
	d="
M439.000000,1.000000 
	C468.354218,1.000000 497.708466,1.000000 527.208557,1.127121 
	C525.701111,1.677050 524.047729,2.099859 522.394409,2.522668 
	C526.911621,3.948866 530.709595,5.882248 530.456848,11.039842 
	C530.158325,17.131954 533.673035,19.390337 538.715271,20.344358 
	C542.471558,21.055077 546.281189,21.688486 550.090637,21.874666 
	C560.925049,22.404177 571.674255,23.473202 582.338501,25.528137 
	C599.895142,28.911213 617.569702,31.125208 635.494385,29.490330 
	C642.660889,28.836685 649.827087,28.750139 656.959290,29.348478 
	C674.555176,30.824640 692.126160,32.595581 709.711609,34.199245 
	C719.148254,35.059803 728.517700,36.823757 735.875610,42.994255 
	C749.271729,54.228527 761.950317,66.250961 773.191467,79.762512 
	C781.599365,89.868477 790.419373,99.684448 801.389832,107.208229 
	C819.432556,119.582367 836.274963,133.280594 851.074829,149.538574 
	C868.436707,168.611008 885.430908,188.102280 906.027466,203.949524 
	C909.702881,206.777451 913.323914,209.898178 916.205933,213.495850 
	C927.350037,227.407471 937.891113,241.781052 943.635376,258.931824 
	C946.072876,266.209717 951.306885,272.327942 952.321350,280.115234 
	C953.612000,290.023041 955.712402,299.970215 955.613770,309.881989 
	C955.442627,327.084381 959.530212,343.174164 965.167847,359.132416 
	C971.991638,378.448212 973.483887,398.499573 972.574219,418.778717 
	C971.916809,433.435669 971.487122,448.088318 972.113892,462.746826 
	C972.449097,470.587891 973.209473,478.319855 978.260498,485.009033 
	C979.889709,487.166748 980.456909,490.193817 981.246887,492.899994 
	C982.145325,495.977631 983.273315,498.918457 985.275696,501.428406 
	C990.194824,507.594482 991.788513,514.723083 991.924561,522.445190 
	C992.241638,540.444153 991.066528,558.109436 987.620667,575.992432 
	C982.811646,600.949585 981.059753,626.486633 977.684265,651.733398 
	C976.281128,662.227844 977.279053,673.175415 972.331360,683.066284 
	C968.537537,690.650513 964.888428,698.315979 960.832764,705.758850 
	C948.781128,727.875427 933.243530,747.775391 920.201965,769.276123 
	C913.906982,779.654297 906.507080,789.372009 901.004150,800.228210 
	C897.965332,806.223206 894.398071,811.768738 889.755554,816.595337 
	C873.148254,833.861206 855.417114,850.024231 840.556763,868.988159 
	C824.957153,888.895630 805.358154,903.747559 781.508850,912.766052 
	C773.571716,915.767395 765.646790,918.917297 758.047180,922.669312 
	C745.030334,929.095703 731.923706,935.113098 717.611267,938.113953 
	C715.192749,938.621094 712.949768,939.914307 710.553467,940.586792 
	C698.714600,943.909241 687.215149,948.884583 674.881470,949.891235 
	C655.694092,951.457275 638.435364,959.786865 620.150818,964.460510 
	C619.992371,964.501038 619.855530,964.623901 619.697327,964.667908 
	C607.362610,968.099731 595.954346,974.391785 583.183594,976.480225 
	C562.279297,979.898621 541.187134,981.508301 520.079834,982.874573 
	C503.458771,983.950439 486.768280,985.398010 470.192078,982.899536 
	C451.236298,980.042358 432.219086,977.911011 413.112335,976.547241 
	C399.318878,975.562683 385.508026,974.925720 371.975525,971.668945 
	C353.018738,967.106812 333.961975,962.889648 314.589539,960.621338 
	C300.260193,958.943420 286.313293,955.547485 272.748962,951.151550 
	C255.872574,945.682312 239.302750,939.380981 225.156799,927.698120 
	C209.013443,914.365662 191.945312,902.152954 175.278549,889.454285 
	C170.496002,885.810425 165.223206,883.042236 159.958069,880.145508 
	C148.615555,873.905334 137.399170,867.417419 128.240723,857.867798 
	C117.196304,846.351562 108.719795,833.117493 100.189011,819.750305 
	C93.536659,809.326477 88.480858,798.415161 85.446327,786.606140 
	C79.602768,763.865417 74.492126,740.918701 65.007988,719.297363 
	C60.692471,709.459167 55.804062,700.786133 43.102940,699.367371 
	C34.294159,698.383362 27.831411,692.317383 23.625305,684.368530 
	C21.444353,680.246826 19.421904,676.039429 17.398592,671.836670 
	C16.202648,669.352600 14.542345,667.454102 12.033875,666.154175 
	C8.273587,664.205505 4.218356,662.471924 3.354098,657.726257 
	C1.656850,658.035278 1.787550,659.413147 1.000000,660.000000 
	C1.000000,636.645752 1.000000,613.291565 1.162291,589.705078 
	C1.923294,590.294067 1.483454,591.951233 2.679008,591.916870 
	C13.748397,560.607117 15.413663,529.419983 2.540200,498.258911 
	C2.023788,500.854401 1.511895,503.427216 1.000000,506.000000 
	C1.000000,439.979095 1.000000,373.958221 1.194132,307.660889 
	C1.724424,307.750214 2.147326,308.483856 2.384114,308.428070 
	C9.080893,306.849243 16.428085,306.424042 22.279106,303.248962 
	C30.523207,298.775330 38.777920,295.589233 48.056404,294.715149 
	C54.203846,294.135986 59.486561,291.580597 64.130074,287.402985 
	C69.318687,282.734985 72.849190,277.010590 76.067856,270.936737 
	C87.347618,249.651001 95.292397,226.788132 108.770493,206.457001 
	C119.685265,189.992523 128.296234,172.095505 143.493271,158.684509 
	C152.833618,150.441879 160.863342,140.654617 170.519791,132.844635 
	C182.658859,123.026749 196.637344,115.704552 209.649994,107.033264 
	C221.782028,98.948807 234.966049,92.313568 248.125046,85.945602 
	C256.761078,81.766396 263.944580,76.097595 270.127747,69.115318 
	C287.435364,49.570911 309.125000,39.043190 334.940552,36.442627 
	C341.786896,35.752949 348.578033,34.084675 354.142487,29.925478 
	C360.266937,25.347706 367.111145,23.272526 374.422821,22.166372 
	C381.532806,21.090725 388.424866,19.190165 395.212891,16.879049 
	C397.263916,16.180738 399.394379,15.443924 400.426300,13.301319 
	C403.350281,7.230112 408.743347,5.471339 414.830078,5.182061 
	C419.816437,4.945078 424.831757,5.277256 429.813568,4.993668 
	C438.531616,4.497392 447.233795,3.722268 455.942627,3.063978 
	C450.272980,1.465954 444.523163,2.720638 439.000000,1.000000 
M456.351471,156.533691 
	C450.154785,157.579666 443.879395,158.291840 437.775299,159.730698 
	C414.193726,165.289337 391.264862,173.093506 368.999420,182.457855 
	C347.567230,191.471771 327.336670,203.072693 307.733704,215.629440 
	C293.793457,224.558945 283.345947,237.862503 269.281616,246.692917 
	C267.211090,247.992920 265.402954,249.864929 263.820679,251.761932 
	C256.775818,260.208130 250.693039,269.537048 241.299759,275.790436 
	C240.489822,276.329620 239.939697,277.244415 239.210495,277.921875 
	C233.468140,283.256897 231.430222,291.097717 226.461212,296.906708 
	C214.723969,310.628174 205.706955,325.997131 198.051926,342.270172 
	C194.538376,349.739258 191.283249,357.278687 187.005630,364.472260 
	C183.138077,370.976227 181.841476,379.075470 179.359711,386.455078 
	C173.555054,403.715454 168.889221,421.160980 166.809250,439.483948 
	C164.623184,458.741547 160.822784,477.794373 161.306366,497.312622 
	C161.577682,508.263977 160.626129,519.313232 163.209122,530.082275 
	C165.402328,539.226074 165.758484,548.643799 168.235992,557.775574 
	C171.398010,569.430298 172.994354,581.515137 176.259613,593.135254 
	C180.894012,609.627869 188.586594,624.925476 196.053558,640.319763 
	C206.354584,661.557007 217.039154,682.550964 232.119354,700.836243 
	C241.393845,712.081909 251.466171,722.683716 261.423370,733.347656 
	C269.022339,741.485962 277.905731,748.346863 285.804626,756.112305 
	C300.660034,770.716736 318.404419,780.912903 335.646088,792.014648 
	C341.684479,795.902893 348.656830,797.600647 354.749481,801.473450 
	C358.405762,803.797607 361.193420,808.176758 365.976562,808.279541 
	C370.763489,808.382507 374.424835,810.957886 378.504089,812.717346 
	C387.765533,816.712158 396.778931,821.760681 406.442139,824.249207 
	C428.860748,830.022400 451.255981,836.373779 474.454498,838.292236 
	C480.009155,838.751648 484.708069,842.666992 490.338257,841.570984 
	C501.364502,839.424683 512.531616,841.018494 523.649109,839.875244 
	C546.523071,837.523254 569.272217,835.224365 591.496460,828.675537 
	C611.430237,822.801636 631.262146,816.616577 649.854126,807.424866 
	C662.361206,801.241638 674.714294,794.591553 686.732849,787.352905 
	C699.284485,779.793091 711.879028,772.071106 722.453552,762.161377 
	C735.266968,750.153625 748.615173,738.712097 760.790405,725.894287 
	C774.028076,711.957825 784.593872,696.409973 795.343323,680.760193 
	C803.581482,668.766541 808.961731,655.279785 816.351379,642.873352 
	C822.477417,632.588379 828.388977,621.972534 832.148254,610.796448 
	C838.041809,593.275574 843.016602,575.396729 846.182617,557.016785 
	C850.136902,534.060486 853.678772,511.162201 852.824341,487.783112 
	C852.785461,486.720184 851.977844,485.207733 854.333496,484.476349 
	C854.333496,488.628296 854.333496,492.633240 854.333496,496.638184 
	C854.659546,492.485168 855.617920,488.414398 854.938782,484.210968 
	C853.652039,476.246918 851.931885,468.388367 851.249573,460.261475 
	C850.594727,452.460632 849.388977,444.550476 847.169800,436.825958 
	C844.386108,427.136230 842.032166,417.198456 840.850403,407.207153 
	C839.602661,396.657318 835.862305,386.971802 832.688599,377.072510 
	C830.307068,369.644073 825.317017,363.298737 822.402161,356.191925 
	C813.475952,334.428436 801.901978,314.251709 788.111572,295.318542 
	C778.676880,282.365417 768.330811,270.146820 757.360229,258.422943 
	C749.168091,249.668152 740.245117,241.747650 731.024292,234.212936 
	C720.508911,225.620377 709.855713,217.162338 698.358765,209.808258 
	C688.404907,203.441193 678.516724,197.038315 667.588867,192.430893 
	C664.400635,191.086639 661.041260,190.345154 658.015015,188.377960 
	C650.692932,183.618347 643.411194,179.046738 634.888000,176.092026 
	C620.786743,171.203537 606.625793,166.594086 592.286682,162.503860 
	C587.986572,161.277237 583.778503,159.465866 579.240845,159.346588 
	C569.566223,159.092300 560.273315,156.454086 550.912659,154.562653 
	C532.382568,150.818420 513.943726,149.847809 495.179077,152.466766 
	C482.562561,154.227631 469.759186,154.538254 456.351471,156.533691 
z"/>
<path fill="#000000" opacity="1.000000" stroke="none" 
	d="
M561.035522,325.986694 
	C554.686096,327.733002 551.287354,333.859680 545.464478,336.430237 
	C536.218628,340.511902 534.209717,348.156281 535.383362,357.333832 
	C535.572083,358.808807 535.377197,360.330261 535.398376,361.829651 
	C535.555664,372.970978 537.742554,374.463013 549.154175,372.079315 
	C578.233032,366.005219 599.095947,348.944580 611.841431,322.017334 
	C616.769470,311.606049 618.809570,300.527435 619.587646,289.189667 
	C620.250732,279.526672 623.879456,274.434357 633.274170,274.129547 
	C655.760742,273.399963 678.293701,273.533600 699.884460,281.307068 
	C718.059448,287.850830 731.017029,300.845978 741.755920,316.303619 
	C754.618896,334.818817 760.216003,355.609619 760.236938,377.993469 
	C760.269653,412.989319 760.217407,447.985229 760.188354,482.981110 
	C760.184875,487.160370 760.070923,491.315094 757.862976,495.100952 
	C756.802368,496.919464 755.411316,498.111816 753.408630,497.019714 
	C748.510498,494.348724 745.954102,496.070892 744.815918,501.120789 
	C744.691467,501.672638 744.075134,502.113647 743.660645,502.639526 
	C740.941956,501.414703 741.152344,499.008087 741.049622,496.994659 
	C740.778259,491.672089 740.683044,486.336029 740.677856,481.005188 
	C740.644104,446.009094 740.698242,411.012939 740.634399,376.016968 
	C740.571045,341.283813 721.158386,312.679169 689.026367,299.782959 
	C680.380676,296.313019 671.357056,295.092346 662.105896,295.460602 
	C656.621704,295.678925 651.161133,296.317200 645.662842,295.450653 
	C640.659729,294.662170 639.996460,298.353821 639.412109,301.938354 
	C637.523071,313.526367 634.323425,324.697937 628.441956,334.931885 
	C615.010071,358.303986 596.379700,376.000946 571.489502,386.851044 
	C559.739929,391.972839 548.291870,398.141968 535.609070,400.472900 
	C509.641968,405.245209 483.580627,405.011414 458.909698,394.983398 
	C434.962708,385.249664 414.773193,370.140625 399.525330,348.487640 
	C389.118225,333.708862 381.806152,318.138336 379.128326,300.298157 
	C378.126801,293.625763 377.887756,293.732269 371.020874,294.178711 
	C365.205505,294.556824 359.377228,294.738495 353.554321,294.999054 
	C311.449036,296.883179 282.999176,326.894043 279.142059,364.405304 
	C278.714783,368.560760 278.405365,372.682068 278.406311,376.845276 
	C278.425446,461.169128 278.357605,545.493103 278.513397,629.816711 
	C278.551270,650.312012 284.768250,668.970093 298.401764,684.492615 
	C312.197174,700.199341 330.076782,709.593140 350.764435,710.453003 
	C381.377441,711.725403 412.076141,710.809570 442.735352,711.122742 
	C515.388123,711.864807 588.046997,712.133606 660.693909,711.440369 
	C701.687744,711.049255 736.606018,680.888245 739.782104,637.767822 
	C741.535645,613.961243 740.078186,590.136108 740.778198,566.329590 
	C740.866333,563.331787 740.808899,560.327576 740.970398,557.334534 
	C741.182373,553.406189 742.161621,550.549988 747.068481,553.111755 
	C749.272583,554.262512 751.293152,552.806519 753.171814,551.807251 
	C755.722900,550.450317 757.199280,551.363708 758.342651,553.718323 
	C759.461853,556.023132 759.987488,558.449524 759.992920,560.968994 
	C760.050110,587.625549 761.051331,614.296936 759.400696,640.930786 
	C758.324036,658.304688 751.880371,673.563049 739.964478,686.391479 
	C736.090576,690.562073 732.624329,694.993713 730.310364,700.271484 
	C727.302002,707.132751 721.084534,710.852905 715.043823,714.172668 
	C695.819336,724.737732 675.355652,731.068054 653.148132,731.407776 
	C588.000244,732.404175 522.845825,732.693726 457.701385,731.971252 
	C427.044189,731.631226 396.387268,731.323364 365.733063,731.430115 
	C346.086578,731.498535 327.889160,726.558655 310.418427,718.063843 
	C306.833405,716.320801 303.156036,714.725098 299.413116,713.357361 
	C288.773682,709.469604 281.726196,702.027832 277.259094,691.796753 
	C276.067078,689.066711 274.562897,686.411072 272.824066,683.992981 
	C266.801056,675.616821 264.224976,665.696472 260.184082,656.434143 
	C259.158508,654.083313 259.005493,651.601685 259.005341,649.087830 
	C259.002899,604.261108 259.020355,559.434326 258.985657,514.607605 
	C258.950195,468.780884 258.802856,422.954193 258.823029,377.127533 
	C258.833557,353.260712 265.348419,331.350342 279.968750,312.294708 
	C295.780640,291.685974 316.818390,279.077606 342.381592,275.141510 
	C356.320435,272.995270 370.598022,273.069946 384.717041,272.061798 
	C389.363525,271.730011 394.038483,271.411285 398.617950,270.613403 
	C406.322479,269.271057 412.921356,271.597168 418.459229,276.603241 
	C422.048615,279.847900 426.089813,281.762115 430.465179,283.476593 
	C434.393921,285.016022 437.598724,284.237640 440.635437,281.658691 
	C442.116974,280.400482 443.242065,278.516205 445.803192,279.286865 
	C445.803192,263.681183 445.755798,248.534744 445.824677,233.388824 
	C445.855652,226.571381 445.202148,219.721283 446.554108,212.948044 
	C446.586639,212.785172 446.571350,212.610931 446.615997,212.452606 
	C449.591675,201.905045 458.506042,198.792847 467.538422,196.238617 
	C474.615753,194.237244 479.805634,196.834595 484.495026,203.645142 
	C489.188660,210.461823 490.142181,210.474045 496.066498,204.480911 
	C499.936157,200.566330 503.856598,196.509949 510.023315,196.733398 
	C517.128174,196.990845 523.224976,202.174286 525.260620,209.773590 
	C525.893799,212.137344 526.307861,214.542511 529.362122,214.533142 
	C532.374023,214.523895 532.958679,212.096970 533.586121,209.777664 
	C537.167786,196.539703 548.718079,192.126068 560.304565,199.426514 
	C567.417175,203.908066 571.039246,209.753387 571.588806,218.586502 
	C572.936462,240.246277 571.932983,261.892151 572.321655,283.537415 
	C572.504089,293.696320 569.758606,303.225342 565.786072,312.513184 
	C564.001404,316.685852 564.363281,321.664062 561.110107,325.707764 
	C561.004700,326.023651 561.035522,325.986694 561.035522,325.986694 
M544.786255,211.384445 
	C540.728394,211.875671 539.532837,214.261703 539.189697,218.215073 
	C537.947815,232.523941 538.549561,246.858780 538.111084,261.174347 
	C537.881836,268.659088 537.983093,276.178040 537.264343,283.616699 
	C536.604858,290.442535 531.830566,293.948761 525.241455,293.448608 
	C519.285461,292.996490 514.602478,288.222382 515.142639,282.003784 
	C516.071228,271.313599 514.689087,260.701813 514.743286,250.046722 
	C514.799988,238.899307 515.323669,227.710678 513.878845,216.593262 
	C513.257568,211.812958 510.824554,209.720901 506.690857,210.404297 
	C502.678894,211.067581 501.298492,213.617645 501.298950,217.517365 
	C501.301300,237.677689 501.163879,257.837982 501.144165,277.998352 
	C501.141541,280.676727 501.314484,283.338409 500.275818,285.877533 
	C498.670044,289.802917 496.257111,292.950043 491.640411,293.119568 
	C487.221680,293.281830 484.057098,291.005341 481.986938,287.168701 
	C480.098053,283.668060 479.942657,279.817078 479.913879,275.986206 
	C479.782318,258.488892 479.735596,240.990921 479.597290,223.493668 
	C479.577667,221.009155 479.362213,218.505966 478.987152,216.049622 
	C478.530945,213.061920 476.735535,211.133865 473.597107,211.192337 
	C470.524750,211.249634 468.190216,212.669678 467.226685,215.828278 
	C466.485992,218.256348 466.408356,220.742645 466.430084,223.250610 
	C466.575806,240.072586 467.586426,256.944244 466.638184,273.704865 
	C465.277069,297.763367 474.978546,314.849915 497.387238,324.166534 
	C499.787811,325.164612 501.015961,326.418304 501.561096,329.078705 
	C503.041962,336.306213 503.399902,343.568481 503.375397,350.909576 
	C503.348724,358.899597 503.527893,366.892578 503.759277,374.880188 
	C503.868988,378.667755 506.138733,379.826874 509.786041,379.748108 
	C513.553894,379.666718 514.358765,377.821716 514.793701,374.476959 
	C516.025391,365.005310 515.424133,355.508301 515.728210,346.027985 
	C516.098022,334.495911 518.325989,325.198090 530.714600,319.084869 
	C544.407410,312.328094 551.634094,299.393341 551.671387,283.463226 
	C551.722107,261.799133 551.588562,240.134521 551.679443,218.470749 
	C551.697937,214.059433 550.371948,211.342804 544.786255,211.384445 
z"/>
<path fill="#000000" opacity="1.000000" stroke="none" 
	d="
M608.684937,565.465027 
	C596.662109,595.855957 574.775208,616.032532 545.106323,627.145020 
	C509.260895,640.570862 476.179932,633.433289 445.998901,610.503540 
	C425.936401,595.261169 412.188568,575.497742 407.556000,550.973938 
	C398.684998,504.013184 412.041992,464.041260 451.403168,435.658325 
	C501.217926,399.737518 561.566895,413.690094 595.251526,460.785400 
	C612.094116,484.333344 617.635742,510.794342 614.655090,539.399658 
	C613.731628,548.262634 611.733093,556.750916 608.684937,565.465027 
M529.152283,612.618103 
	C541.715332,609.310303 553.295349,603.965088 563.156982,595.417053 
	C567.302734,591.823547 566.913086,590.592102 562.410461,587.830872 
	C557.033936,584.533691 552.871216,580.058899 550.156738,574.339844 
	C548.923462,571.741394 549.112061,569.221375 550.937988,566.825256 
	C552.763550,564.429565 555.068115,564.618164 557.682373,564.942505 
	C565.277283,565.884888 570.552673,570.045166 574.230591,576.477356 
	C576.186218,579.897644 578.123413,579.589233 580.222961,576.724792 
	C580.910156,575.787231 581.570557,574.814331 582.112427,573.788452 
	C587.904236,562.823120 592.375916,551.414307 594.023499,539.013306 
	C594.694824,533.960022 593.827515,532.605347 588.810913,532.404968 
	C584.317200,532.225464 579.799316,532.464478 575.320801,532.132141 
	C569.154724,531.674561 566.729858,528.800110 566.822693,522.706604 
	C566.923157,516.111877 569.319336,513.200928 575.467957,512.779480 
	C579.947754,512.472473 584.460205,512.403992 588.922302,513.267334 
	C591.654358,513.795898 593.656311,513.173767 593.547729,509.866882 
	C593.065247,495.170563 585.854370,483.423553 577.290710,471.912445 
	C574.087463,474.045441 572.195190,476.798767 570.110229,479.339172 
	C567.661194,482.323273 565.003479,485.070587 561.678772,487.071533 
	C556.860901,489.971100 552.434204,488.807861 548.234253,483.623993 
	C544.681885,479.239441 544.650269,475.799164 548.494934,471.649292 
	C552.116150,467.740662 555.822205,463.883698 559.773865,460.317535 
	C562.458008,457.895264 562.261108,456.144836 559.795715,453.798492 
	C549.724792,444.213867 537.154663,440.139191 523.979492,437.474213 
	C520.571960,436.784943 519.566956,438.279419 519.888428,442.079926 
	C520.502380,449.338196 521.814941,456.660278 520.499023,463.971466 
	C519.573914,469.111450 516.063354,471.657898 510.886261,471.306824 
	C505.557800,470.945526 502.695831,468.108185 502.666565,462.686951 
	C502.621948,454.414703 502.015594,446.125397 503.391937,437.941742 
	C491.724426,434.838104 465.646332,445.261414 457.923218,457.025055 
	C459.638977,458.629547 461.469513,460.302063 463.256165,462.020203 
	C466.975983,465.597382 470.738251,469.100861 473.588135,473.507050 
	C476.201813,477.548157 475.584656,480.973053 472.557465,484.368622 
	C467.605896,489.922760 464.140594,490.285797 458.567505,485.384033 
	C453.230164,480.689575 448.078094,475.784393 442.336273,470.504395 
	C434.832153,481.865845 427.940857,492.751770 426.312256,506.081848 
	C425.509674,512.651062 425.538025,512.616943 432.294250,512.746582 
	C436.787933,512.832764 441.312012,512.758545 445.763763,513.268738 
	C452.176483,514.003601 453.441467,515.792969 453.361877,522.575623 
	C453.286774,528.975159 450.974030,531.771851 445.351135,532.591309 
	C440.170074,533.346375 435.045654,532.243286 429.883179,532.323364 
	C425.995209,532.383728 424.941315,534.105957 425.607697,537.696228 
	C428.001740,550.594788 432.608032,562.666504 439.054565,574.050781 
	C441.063354,577.598267 443.722931,580.604248 447.734772,581.930176 
	C449.705872,582.581726 450.988617,583.793518 451.319855,585.695984 
	C452.166534,590.558838 455.603424,593.374878 459.063843,596.324463 
	C465.744354,602.018677 473.396454,606.106445 481.376740,609.459961 
	C488.234680,612.341858 495.480255,614.139404 501.984009,613.692444 
	C501.984009,604.991455 501.701080,596.876648 502.075073,588.792236 
	C502.365143,582.521973 506.029358,579.401001 511.609467,579.633972 
	C517.032532,579.860291 520.250488,583.483643 520.339417,589.656189 
	C520.411438,594.654236 520.275452,599.655212 520.333435,604.653625 
	C520.390076,609.535156 520.342163,614.250916 513.240051,614.156555 
	C518.553711,614.489502 523.452454,613.760071 529.152283,612.618103 
z"/>
<path fill="#000000" opacity="1.000000" stroke="none" 
	d="
M336.998779,581.140991 
	C329.341125,581.173889 322.183258,581.266724 315.025726,581.244263 
	C307.058105,581.219177 301.795502,576.657227 301.873840,569.971558 
	C301.951294,563.359131 307.345337,558.660706 315.041870,558.649109 
	C335.519348,558.618408 355.996979,558.619995 376.474457,558.652405 
	C383.906525,558.664185 389.916809,563.765076 389.919220,569.925720 
	C389.921539,575.872742 383.583801,581.334412 376.455963,581.332703 
	C363.470215,581.329651 350.484467,581.216980 336.998779,581.140991 
z"/>
<path fill="#000000" opacity="1.000000" stroke="none" 
	d="
M715.079956,575.838806 
	C712.080872,579.908386 708.441040,581.399658 703.689453,581.407227 
	C683.081726,581.439880 662.469971,580.844177 641.864319,581.725647 
	C636.624268,581.949768 631.665649,577.452209 630.767456,572.093445 
	C629.709351,565.781067 632.076233,561.616211 637.801575,559.507263 
	C639.723328,558.799377 641.672241,558.637878 643.677490,558.647705 
	C662.462646,558.740173 681.247925,558.802795 700.032715,558.938354 
	C702.346008,558.955078 704.690430,559.169556 706.962402,559.599304 
	C715.142273,561.146851 718.643311,567.927368 715.079956,575.838806 
z"/>
<path fill="#000000" opacity="1.000000" stroke="none" 
	d="
M323.026917,413.134491 
	C319.537445,413.152222 316.521423,413.400269 313.551971,413.132233 
	C306.372955,412.484131 301.824860,406.950195 302.726440,400.267792 
	C303.582275,393.924164 308.724884,390.780182 315.885803,391.121887 
	C336.489807,392.105072 357.118164,392.671021 377.718170,391.046783 
	C385.377167,390.442841 391.014496,394.575897 391.273621,401.574188 
	C391.497162,407.610199 385.534882,413.649872 378.906128,413.263397 
	C360.438080,412.186646 341.982880,412.866455 323.026917,413.134491 
z"/>
<path fill="#000000" opacity="1.000000" stroke="none" 
	d="
M630.755005,513.646606 
	C630.798950,505.886017 634.666321,501.702148 642.024536,501.695984 
	C662.347900,501.678955 682.671509,501.864502 702.994873,501.993073 
	C704.154480,502.000458 705.322937,502.153748 706.470093,502.343048 
	C712.596619,503.354065 717.068787,508.052643 716.912964,513.271118 
	C716.760925,518.361694 711.201599,523.263489 705.092529,523.355103 
	C685.111694,523.654724 665.129517,523.900452 645.146973,524.037231 
	C637.478027,524.089722 633.452393,521.123474 630.755005,513.646606 
z"/>
<path fill="#000000" opacity="1.000000" stroke="none" 
	d="
M645.080322,446.645142 
	C664.869751,446.653168 684.171082,446.669006 703.472412,446.660828 
	C708.628967,446.658630 713.085999,448.141022 715.670532,452.915863 
	C718.883728,458.852051 714.051575,467.122986 706.807068,467.297974 
	C684.691284,467.832062 662.565613,468.118805 640.443542,468.137329 
	C633.238281,468.143372 628.508972,462.860901 628.760376,456.448120 
	C628.981689,450.803009 633.982300,446.827820 641.098022,446.653595 
	C642.262207,446.625061 643.427490,446.645935 645.080322,446.645142 
z"/>
<path fill="#000000" opacity="1.000000" stroke="none" 
	d="
M363.997681,523.367432 
	C346.855347,523.371277 330.211487,523.482117 313.569946,523.331238 
	C304.933960,523.252991 299.779510,515.794678 303.037506,508.363983 
	C305.045837,503.783447 308.922974,501.558838 313.783539,501.559265 
	C334.253052,501.561035 354.723358,501.643005 375.191650,501.858734 
	C381.504761,501.925293 385.626465,504.900513 387.254364,509.790039 
	C388.843079,514.561829 387.144501,518.220581 383.461609,521.248108 
	C381.420074,522.926270 379.058044,523.452576 376.479523,523.418030 
	C372.485901,523.364441 368.491302,523.379761 363.997681,523.367432 
z"/>
<path fill="#000000" opacity="1.000000" stroke="none" 
	d="
M344.232483,467.771667 
	C334.625946,467.205505 325.478210,467.254364 316.332581,467.653717 
	C313.306030,467.785889 310.280762,467.878174 307.645142,466.150269 
	C303.604126,463.500916 302.014343,459.609955 302.910767,454.935944 
	C303.752747,450.545807 308.593231,446.789307 313.640167,446.702911 
	C320.791016,446.580536 327.947693,446.856140 335.101685,446.846741 
	C348.912140,446.828583 362.722473,446.723450 376.532928,446.673309 
	C378.194031,446.667267 379.887970,446.590332 381.510834,446.870270 
	C386.693848,447.764313 391.213898,453.071045 390.879669,457.681549 
	C390.483551,463.146118 384.421661,468.576843 378.102814,468.013123 
	C366.946838,467.017914 355.828796,467.781677 344.232483,467.771667 
z"/>
<path fill="#000000" opacity="1.000000" stroke="none" 
	d="
M706.371094,412.971191 
	C684.352783,411.937317 662.741150,412.371490 641.133118,412.351257 
	C635.605835,412.346100 632.121216,409.391785 630.309326,403.755676 
	C628.889893,399.340454 629.731201,395.597839 633.424255,392.589813 
	C635.659973,390.768829 638.247070,390.390320 640.946472,390.671509 
	C662.346497,392.900726 683.798584,391.405823 705.226135,391.600372 
	C709.560486,391.639679 712.989990,393.141937 715.252075,396.939484 
	C719.203186,403.572571 715.908630,409.783966 706.371094,412.971191 
z"/>
<path fill="#000000" opacity="1.000000" stroke="none" 
	d="
M353.000824,627.661743 
	C360.653839,627.659119 367.806915,627.654297 374.959961,627.650757 
	C376.290771,627.650085 377.621887,627.635986 378.952301,627.659546 
	C387.223480,627.805908 392.151825,631.291687 391.983948,636.865601 
	C391.797852,643.044617 385.715179,647.857178 378.219238,647.777222 
	C364.084320,647.626465 349.949463,647.462097 335.814178,647.353455 
	C329.327118,647.303528 322.839050,647.396118 316.351624,647.369873 
	C314.696533,647.363159 312.991058,647.367737 311.396851,646.992554 
	C305.513031,645.607971 302.105682,641.207764 302.680298,635.982727 
	C303.168121,631.546997 307.493286,627.846069 313.077301,627.718567 
	C322.221954,627.509583 331.374420,627.637939 340.523590,627.632874 
	C344.516022,627.630676 348.508423,627.650208 353.000824,627.661743 
z"/>
<path fill="#000000" opacity="1.000000" stroke="none" 
	d="
M627.983704,638.909973 
	C627.071777,631.901550 631.916138,627.558716 639.822327,627.741760 
	C655.290833,628.099854 670.759583,628.461914 686.229858,628.725281 
	C692.556824,628.833008 698.888733,628.617188 705.217163,628.679077 
	C711.816650,628.743530 716.344238,632.213379 716.309448,636.990479 
	C716.268677,642.589050 711.410767,647.380127 705.041260,647.377380 
	C683.072998,647.367798 661.104431,648.174561 639.135742,647.362854 
	C633.557251,647.156738 630.429321,643.804077 627.983704,638.909973 
z"/>
<path fill="#000000" opacity="1.000000" stroke="none" 
	d="
M560.991455,326.043823 
	C563.271912,324.135406 565.588135,322.412628 568.723755,321.852570 
	C572.304565,321.212982 574.131775,318.308289 575.835083,315.376007 
	C576.876587,313.583099 577.714966,310.987579 580.547241,312.093872 
	C582.971436,313.040741 582.899597,315.477936 582.788818,317.669403 
	C582.198608,329.342438 578.320557,333.606934 566.764893,335.342896 
	C561.145386,336.187103 559.747803,334.820129 560.535767,329.237396 
	C560.651733,328.416168 560.807983,327.600647 560.990601,326.384583 
	C561.035522,325.986694 561.004700,326.023651 560.991455,326.043823 
z"/>
<path fill="#000000" opacity="1.000000" stroke="none" 
	d="
M560.654541,342.942200 
	C561.592285,346.516205 559.460083,347.097565 557.113831,346.816254 
	C554.462341,346.498383 551.096008,347.061554 549.934082,343.669281 
	C549.355042,341.978760 550.941284,340.932831 552.441772,340.539642 
	C555.467590,339.746704 558.386047,339.743622 560.654541,342.942200 
z"/>
<path fill="#000000" opacity="1.000000" stroke="none" 
	d="
M540.299316,521.328735 
	C537.551819,524.805481 536.138550,528.480225 535.134338,532.401245 
	C533.268677,539.685364 529.829285,545.973938 523.462891,550.419800 
	C518.309326,554.018738 512.811951,554.865479 506.868378,553.045593 
	C488.003906,547.269226 478.050659,525.163818 486.279755,507.312531 
	C488.468231,502.565063 493.045380,501.693359 497.447601,500.866791 
	C511.760376,498.179352 526.330261,500.490509 540.714966,498.815735 
	C543.780029,498.458893 546.757385,499.297333 548.242981,502.537811 
	C550.036743,506.450531 550.067566,510.414764 547.416382,513.871277 
	C545.409851,516.487305 542.840210,518.671448 540.299316,521.328735 
M503.399017,527.921814 
	C507.139923,532.868835 510.296326,533.872681 514.198853,531.356445 
	C519.246460,528.101929 519.740906,525.508362 516.460144,519.608704 
	C514.652588,516.358276 512.305786,513.738953 508.199219,514.575378 
	C503.840759,515.463135 502.857208,519.106812 502.388794,522.872314 
	C502.205078,524.349243 502.282959,525.868530 503.399017,527.921814 
z"/>
</svg>