<?xml version="1.0" encoding="UTF-8"?>
<!DOCTYPE svg PUBLIC "-//W3C//DTD SVG 1.1//EN" "http://www.w3.org/Graphics/SVG/1.1/DTD/svg11.dtd">
<svg xmlns="http://www.w3.org/2000/svg" version="1.1" width="300px" height="121px" style="shape-rendering:geometricPrecision; text-rendering:geometricPrecision; image-rendering:optimizeQuality; fill-rule:evenodd; clip-rule:evenodd" xmlns:xlink="http://www.w3.org/1999/xlink">
<g><path style="opacity:0.947" fill="#221e1f" d="M 100.5,3.5 C 103.448,3.22288 106.281,3.55621 109,4.5C 112.427,27.486 115.76,50.486 119,73.5C 122.739,50.5963 126.072,27.5963 129,4.5C 131.719,3.55621 134.552,3.22288 137.5,3.5C 137.5,41.1667 137.5,78.8333 137.5,116.5C 134.833,116.5 132.167,116.5 129.5,116.5C 129.667,89.1646 129.5,61.8313 129,34.5C 125.555,61.9518 121.555,89.2851 117,116.5C 112.628,89.8957 108.628,63.2291 105,36.5C 104.5,63.1646 104.333,89.8313 104.5,116.5C 103.167,116.5 101.833,116.5 100.5,116.5C 100.5,78.8333 100.5,41.1667 100.5,3.5 Z"/></g>
<g><path style="opacity:0.936" fill="#221e1f" d="M 187.5,3.5 C 189.017,3.51056 190.184,4.17723 191,5.5C 193,11.5 193,17.5 191,23.5C 188.565,26.2277 186.565,25.8943 185,22.5C 184.333,17.5 184.333,12.5 185,7.5C 185.662,6.01608 186.496,4.68275 187.5,3.5 Z"/></g>
<g><path style="opacity:1" fill="#e6233b" d="M 89.5,31.5 C 83.509,31.0343 77.509,30.701 71.5,30.5C 70.1782,40.5829 68.3449,50.5829 66,60.5C 64.5156,57.5311 63.0156,54.5311 61.5,51.5C 55.8722,50.5046 50.2055,50.1712 44.5,50.5C 44.641,36.9096 48.141,24.2429 55,12.5C 63.2778,2.21014 71.9444,1.87681 81,11.5C 85.1004,17.6365 87.9338,24.3032 89.5,31.5 Z"/></g>
<g><path style="opacity:0.985" fill="#fefafb" d="M 89.5,31.5 C 90.5456,34.7278 91.2122,38.0611 91.5,41.5C 87.5633,41.2065 83.73,41.5399 80,42.5C 76.4602,60.5323 72.7936,78.5323 69,96.5C 64.1514,84.8076 59.3181,73.1409 54.5,61.5C 51.0381,60.5184 47.3714,60.185 43.5,60.5C 43.3424,57.0977 43.6758,53.7644 44.5,50.5C 50.2055,50.1712 55.8722,50.5046 61.5,51.5C 63.0156,54.5311 64.5156,57.5311 66,60.5C 68.3449,50.5829 70.1782,40.5829 71.5,30.5C 77.509,30.701 83.509,31.0343 89.5,31.5 Z"/></g>
<g><path style="opacity:0.956" fill="#221e1f" d="M 171.5,38.5 C 174.518,38.7038 177.518,39.0371 180.5,39.5C 180.5,41.8333 180.5,44.1667 180.5,46.5C 173.166,44.3223 169.832,47.1556 170.5,55C 171.258,62.6833 174.091,69.5166 179,75.5C 183.98,88.6859 183.647,101.686 178,114.5C 174.153,118.161 169.986,118.494 165.5,115.5C 164.534,113.604 164.201,111.604 164.5,109.5C 169.475,111.926 172.975,110.593 175,105.5C 175.667,101.167 175.667,96.8333 175,92.5C 172.769,87.2689 170.103,82.2689 167,77.5C 163.667,66.1667 163.667,54.8333 167,43.5C 168.059,41.3408 169.559,39.6741 171.5,38.5 Z"/></g>
<g><path style="opacity:0.937" fill="#221e1f" d="M 150.5,38.5 C 153.192,39.53 154.692,41.53 155,44.5C 157.699,68.4859 160.199,92.4859 162.5,116.5C 160.167,116.5 157.833,116.5 155.5,116.5C 155.229,109.121 154.562,101.788 153.5,94.5C 150.833,94.5 148.167,94.5 145.5,94.5C 144.534,101.796 143.867,109.13 143.5,116.5C 142.167,116.5 140.833,116.5 139.5,116.5C 141.876,93.8691 144.042,71.2024 146,48.5C 146.089,44.3506 147.589,41.0173 150.5,38.5 Z M 148.5,54.5 C 149.117,54.6107 149.617,54.944 150,55.5C 151.032,65.4892 151.866,75.4892 152.5,85.5C 150.5,85.5 148.5,85.5 146.5,85.5C 147.233,75.1712 147.9,64.8379 148.5,54.5 Z"/></g>
<g><path style="opacity:0.963" fill="#231f20" d="M 185.5,39.5 C 187.5,39.5 189.5,39.5 191.5,39.5C 191.5,65.1667 191.5,90.8333 191.5,116.5C 189.5,116.5 187.5,116.5 185.5,116.5C 185.5,90.8333 185.5,65.1667 185.5,39.5 Z"/></g>
<g><path style="opacity:0.947" fill="#221e1f" d="M 201.5,38.5 C 204.675,39.1824 206.175,41.1824 206,44.5C 207.406,56.1582 208.74,67.8248 210,79.5C 211.469,66.4711 213.136,53.4711 215,40.5C 218.502,38.0726 220.836,39.0726 222,43.5C 223.44,67.7951 223.94,92.1284 223.5,116.5C 221.5,116.5 219.5,116.5 217.5,116.5C 217.667,95.1641 217.5,73.8307 217,52.5C 214.922,73.8579 212.756,95.1912 210.5,116.5C 209.5,116.5 208.5,116.5 207.5,116.5C 205.536,98.8621 203.703,81.1955 202,63.5C 201.5,81.1635 201.333,98.8302 201.5,116.5C 200.167,116.5 198.833,116.5 197.5,116.5C 197.333,92.4977 197.5,68.4977 198,44.5C 198.424,41.9746 199.59,39.9746 201.5,38.5 Z"/></g>
<g><path style="opacity:0.952" fill="#231e20" d="M 238.5,38.5 C 243.305,39.1323 246.472,41.799 248,46.5C 254.92,67.0582 255.253,87.7249 249,108.5C 247.011,114.851 242.844,117.351 236.5,116C 231.925,109.953 229.091,103.12 228,95.5C 225.673,80.0341 226.34,64.7007 230,49.5C 231.45,44.5233 234.283,40.8567 238.5,38.5 Z M 239.5,45.5 C 242.27,47.3658 243.77,50.0324 244,53.5C 247.779,72.0198 247.113,90.3531 242,108.5C 240.667,111.167 239.333,111.167 238,108.5C 232.41,88.9444 232.077,69.2777 237,49.5C 237.662,48.0161 238.496,46.6828 239.5,45.5 Z"/></g>
<g><path style="opacity:1" fill="#e6243c" d="M 91.5,41.5 C 95.2715,64.0405 92.4381,85.7072 83,106.5C 74.4939,119.018 65.1606,119.684 55,108.5C 48.078,96.0576 44.2446,82.7243 43.5,68.5C 44.4682,66.3926 44.8016,64.0593 44.5,61.5C 47.8333,61.5 51.1667,61.5 54.5,61.5C 59.3181,73.1409 64.1514,84.8076 69,96.5C 72.7936,78.5323 76.4602,60.5323 80,42.5C 83.73,41.5399 87.5633,41.2065 91.5,41.5 Z"/></g>
<g><path style="opacity:0.357" fill="#221e20" d="M 249.5,39.5 C 255.148,39.311 256.482,41.4777 253.5,46C 248.57,46.427 247.237,44.2604 249.5,39.5 Z"/></g>
<g><path style="opacity:1" fill="#f39ba7" d="M 43.5,60.5 C 47.3714,60.185 51.0381,60.5184 54.5,61.5C 51.1667,61.5 47.8333,61.5 44.5,61.5C 44.8016,64.0593 44.4682,66.3926 43.5,68.5C 43.5,65.8333 43.5,63.1667 43.5,60.5 Z"/></g>
</svg>
