<?xml version="1.0" standalone="no"?>
<!DOCTYPE svg PUBLIC "-//W3C//DTD SVG 20010904//EN"
 "http://www.w3.org/TR/2001/REC-SVG-20010904/DTD/svg10.dtd">
<svg version="1.0" xmlns="http://www.w3.org/2000/svg"
 width="300.000000pt" height="121.000000pt" viewBox="0 0 300.000000 121.000000"
 preserveAspectRatio="xMidYMid meet">

<g transform="translate(0.000000,121.000000) scale(0.100000,-0.100000)"
fill="#000000" stroke="none">
<path d="M654 1149 c-41 -12 -100 -78 -131 -147 -24 -54 -55 -175 -67 -259
l-6 -43 83 0 83 0 25 -51 25 -51 28 152 29 152 84 -4 84 -4 -6 25 c-3 14 -22
59 -43 100 -54 108 -116 150 -188 130z"/>
<path d="M1010 600 c0 -491 2 -560 15 -560 13 0 15 57 16 448 1 246 5 431 9
412 4 -19 34 -217 66 -439 40 -275 61 -395 65 -375 4 16 31 206 61 423 l53
394 3 -432 2 -431 35 0 35 0 0 560 0 560 -34 0 c-42 0 -33 37 -86 -380 -23
-179 -44 -332 -47 -340 -3 -8 -27 131 -54 310 -26 179 -50 344 -54 368 -6 41
-7 42 -46 42 l-39 0 0 -560z"/>
<path d="M1869 1143 c-22 -26 -19 -158 4 -180 18 -17 19 -17 33 1 17 23 19
147 4 177 -13 23 -23 24 -41 2z"/>
<path d="M1492 793 c-5 -10 -12 -29 -15 -43 -10 -43 -68 -702 -62 -708 12 -12
18 12 27 105 5 54 11 104 13 111 3 9 19 12 47 10 l43 -3 7 -55 c4 -30 10 -81
13 -112 6 -53 9 -58 31 -58 20 0 24 5 24 33 -1 71 -69 684 -79 710 -12 31 -36
36 -49 10z m27 -233 c7 -69 14 -146 18 -172 l6 -48 -43 0 -43 0 6 48 c3 26 11
107 18 180 7 73 15 129 19 125 4 -4 13 -64 19 -133z"/>
<path d="M1708 800 c-33 -20 -53 -98 -53 -207 l0 -102 54 -102 c62 -119 75
-187 47 -253 -15 -36 -18 -38 -56 -34 -35 3 -40 1 -40 -17 0 -31 19 -45 61
-45 72 0 105 85 97 249 -5 101 -14 127 -85 256 -22 39 -28 63 -28 111 0 73 14
94 62 94 32 0 34 2 31 28 -3 23 -8 27 -38 29 -19 2 -43 -2 -52 -7z"/>
<path d="M1860 425 l0 -385 25 0 25 0 0 385 0 385 -25 0 -25 0 0 -385z"/>
<path d="M2000 784 c-14 -35 -13 -744 0 -744 6 0 10 114 10 322 0 177 2 319 5
316 3 -3 19 -142 36 -309 16 -167 32 -310 35 -318 13 -39 24 27 49 284 14 154
30 298 34 320 6 25 9 -84 10 -287 l1 -328 25 0 25 0 -1 348 c0 359 -6 413 -41
420 -9 2 -21 -6 -27 -16 -6 -11 -19 -111 -30 -222 -11 -111 -21 -204 -24 -206
-2 -2 -14 89 -26 202 -12 114 -26 215 -32 225 -14 27 -38 23 -49 -7z"/>
<path d="M2354 783 c-45 -48 -66 -141 -71 -313 -6 -177 8 -268 54 -360 36 -70
70 -86 109 -49 54 50 84 178 84 354 0 168 -35 320 -87 377 -23 26 -60 22 -89
-9z m80 -61 c42 -82 49 -449 10 -562 -34 -99 -71 -71 -94 72 -14 89 -8 393 9
447 14 45 40 83 52 76 5 -4 15 -18 23 -33z"/>
<path d="M2495 790 c-4 -6 -4 -14 -1 -17 3 -4 6 0 6 8 0 11 2 11 10 -1 8 -13
12 -12 27 4 12 13 13 16 2 8 -11 -8 -19 -8 -26 -1 -8 8 -13 7 -18 -1z"/>
<path d="M801 738 c-54 -267 -102 -492 -106 -496 -2 -3 -9 7 -14 21 -6 14 -36
88 -67 164 -31 76 -58 144 -61 151 -3 7 -25 12 -56 12 l-50 0 6 -87 c22 -291
144 -495 272 -453 124 41 217 325 201 613 -3 60 -8 112 -11 118 -4 5 -28 9
-55 9 l-49 0 -10 -52z"/>
</g>
</svg>
